<mxfile host="app.diagrams.net" modified="2024-04-13T08:18:00.507Z" agent="Mozilla/5.0 (Macintosh; Intel Mac OS X 10_15_7) AppleWebKit/537.36 (KHTML, like Gecko) Chrome/122.0.0.0 Safari/537.36" version="24.2.3" etag="aaz34hkrDk67NWLUFI5o" type="github">
  <diagram name="Page-1" id="TDlgMWpF5D934Oe7UYl3">
    <mxGraphModel>
      <root>
        <mxCell id="0" />
        <mxCell id="1" parent="0" />
      </root>
    </mxGraphModel>
  </diagram>
</mxfile>
